# xmcd
#
# Track frame offsets: 
#        150
#        11436
#        22443
#        33257
#        45152
#        57622
#        69438
#        81522
#        94245
#        106401
#        117732
#        129831
#        141368
#        155049
#        168053
#        181027
#        193681
#        206709
#        219006
#        231437
#        243805
#        255970
#        267988
#        280094
#        292027
#        303481
#        315478
#        327237
#
# Disc length: 4527 seconds
#
# Revision: 0
# Processed by: cddbd v1.5.1PL0 Copyright (c) Steve Scherf et al.
# Submitted via: ExactAudioCopy v0.95a4
#
DISCID=9311ad1c
DTITLE=Hank Penny - Flamin' Mamie 1938-1941
DYEAR=1900
DGENRE=Country
TTITLE0=Flamin' Mamie
TTITLE1=I've Got The Right Key Baby
TTITLE2=Cheatin' On You Baby
TTITLE3=She's Just That Kind
TTITLE4=Blue Melody
TTITLE5=Yankee Doodle
TTITLE6=The Last Goodbye
TTITLE7=Tonight You Belong To Me
TTITLE8=You're So Different
TTITLE9=Black Eyed Susie
TTITLE10=Take It Slow And Easy
TTITLE11=I Told Them All About You
TTITLE12=Just A Message
TTITLE13=Just Forget
TTITLE14=I Don't Love Anybody But You
TTITLE15=Looking For Someone To Love
TTITLE16=Just For Old Time's Sake
TTITLE17=One Of Us Was Wrong
TTITLE18=They're All Just The Same To Me
TTITLE19=I Hate To Lose You
TTITLE20=Walking Home From An Old Country School
TTITLE21=Steel Guitar Hula
TTITLE22=Somebody
TTITLE23=Why Did I Cry?
TTITLE24=Standing 'Neath The Old Pine Tree
TTITLE25=Army Blues
TTITLE26=Off To Honolulu
TTITLE27=Midnight Blues
EXTD=
EXTT0=
EXTT1=
EXTT2=
EXTT3=
EXTT4=
EXTT5=
EXTT6=
EXTT7=
EXTT8=
EXTT9=
EXTT10=
EXTT11=
EXTT12=
EXTT13=
EXTT14=
EXTT15=
EXTT16=
EXTT17=
EXTT18=
EXTT19=
EXTT20=
EXTT21=
EXTT22=
EXTT23=
EXTT24=
EXTT25=
EXTT26=
EXTT27=
PLAYORDER=
